<svg width="20" height="20" viewBox="0 0 20 20" fill="none" xmlns="http://www.w3.org/2000/svg">
<path d="M9.00001 7.99995H12.3334M9.00001 9.99996H12.3334M9.00001 12H12.3334M5 6.00001C5 5.73479 5.14048 5.48044 5.39053 5.2929C5.64058 5.10536 5.97972 5 6.33334 5H13C13.3537 5 13.6928 5.10536 13.9428 5.2929C14.1929 5.48044 14.3334 5.73479 14.3334 6.00001V14C14.3334 14.2652 14.1929 14.5196 13.9428 14.7071C13.6928 14.8947 13.3537 15 13 15H6.33334C5.97972 15 5.64058 14.8947 5.39053 14.7071C5.14048 14.5196 5 14.2652 5 14V6.00001ZM7.66668 7.99995C7.66668 8.27609 7.3682 8.49995 7.00001 8.49995C6.63181 8.49995 6.33333 8.27609 6.33333 7.99995C6.33333 7.72381 6.63181 7.49995 7.00001 7.49995C7.3682 7.49995 7.66668 7.72381 7.66668 7.99995ZM7.66668 9.99996C7.66668 10.2761 7.3682 10.5 7.00001 10.5C6.63181 10.5 6.33333 10.2761 6.33333 9.99996C6.33333 9.72381 6.63181 9.49995 7.00001 9.49995C7.3682 9.49995 7.66668 9.72381 7.66668 9.99996ZM7.66668 12C7.66668 12.2761 7.3682 12.5 7.00001 12.5C6.63181 12.5 6.33333 12.2761 6.33333 12C6.33333 11.7238 6.63181 11.5 7.00001 11.5C7.3682 11.5 7.66668 11.7238 7.66668 12ZM11.6667 13.5L15 11L13 9.50001L9.66668 12V13.5H11.6667Z" stroke="#CBD5E1" stroke-width="1.33333"/>
</svg>
