<svg width="20" height="20" viewBox="0 0 20 20" fill="none" xmlns="http://www.w3.org/2000/svg">
<path d="M7.14285 7.50001H12.8572M8.57141 9.25002C8.57141 9.11195 8.41152 9.00002 8.21427 9.00002H7.49999C7.30274 9.00002 7.14285 9.11195 7.14285 9.25002V9.75002C7.14285 9.88809 7.30274 10 7.49999 10H8.21427C8.41152 10 8.57141 9.88809 8.57141 9.75002V9.25002ZM8.57141 9.25002L7.85714 9.75002L7.5 9.50001M9.2857 9.50001H12.8572M9.2857 11.5H12.8572M9.2857 13.5H12.8572M5 6.00001C5 5.73479 5.15051 5.48044 5.41842 5.2929C5.68633 5.10536 6.0497 5 6.42857 5H13.5714C13.9503 5 14.3136 5.10536 14.5815 5.2929C14.8495 5.48044 15 5.73479 15 6.00001V14C15 14.2652 14.8495 14.5196 14.5815 14.7071C14.3136 14.8947 13.9503 15 13.5714 15H6.42857C6.0497 15 5.68633 14.8947 5.41842 14.7071C5.15051 14.5196 5 14.2652 5 14V6.00001ZM7.85714 5H12.1428C12.5357 5 12.8572 5.225 12.8572 5.5C12.8572 5.77501 12.5357 6.00001 12.1428 6.00001H7.85714C7.46428 6.00001 7.14285 5.77501 7.14285 5.5C7.14285 5.225 7.46428 5 7.85714 5ZM7.49999 11H8.21427C8.41152 11 8.57141 11.1119 8.57141 11.25V11.75C8.57141 11.8881 8.41152 12 8.21427 12H7.49999C7.30274 12 7.14285 11.8881 7.14285 11.75V11.25C7.14285 11.1119 7.30274 11 7.49999 11ZM7.49999 13H8.21427C8.41152 13 8.57141 13.112 8.57141 13.25V13.75C8.57141 13.8881 8.41152 14 8.21427 14H7.49999C7.30274 14 7.14285 13.8881 7.14285 13.75V13.25C7.14285 13.112 7.30274 13 7.49999 13Z" stroke="#CBD5E1" stroke-width="1.33333"/>
</svg>
