<svg width="35" height="35" viewBox="0 0 35 35" fill="none" xmlns="http://www.w3.org/2000/svg">
<path d="M28.4375 0H6.5625C2.93813 0 0 2.93813 0 6.5625V28.4375C0 32.0619 2.93813 35 6.5625 35H28.4375C32.0619 35 35 32.0619 35 28.4375V6.5625C35 2.93813 32.0619 0 28.4375 0Z" fill="#667EEA"/>
<path d="M25.156 21.3281C25.156 21.7632 24.9831 22.1805 24.6755 22.4882C24.3678 22.7959 23.9505 22.9688 23.5154 22.9688H12.031L8.74974 26.25V11.4844C8.74974 11.0493 8.92259 10.632 9.23027 10.3243C9.53794 10.0166 9.95524 9.84375 10.3904 9.84375H23.5154C23.9505 9.84375 24.3678 10.0166 24.6755 10.3243C24.9831 10.632 25.156 11.0493 25.156 11.4844V21.3281Z" fill="white"/>
</svg>
