<svg width="24" height="24" viewBox="0 0 24 24" fill="none" xmlns="http://www.w3.org/2000/svg">
<path d="M22.8334 12C22.8334 17.983 17.9831 22.8333 12 22.8333M22.8334 12C22.8334 6.01687 17.9831 1.16663 12 1.16663M22.8334 12H1.16669M22.8334 12C22.8334 9.12678 21.692 6.37128 19.6603 4.33964C17.6287 2.30799 14.8732 1.16663 12 1.16663M22.8334 12C22.8334 14.8731 21.692 17.6286 19.6603 19.6603C17.6287 21.6919 14.8732 22.8333 12 22.8333M12 22.8333C6.01694 22.8333 1.16669 17.983 1.16669 12M1.16669 12C1.16669 6.01687 6.01694 1.16663 12 1.16663" stroke="#667EEA" stroke-width="2.16667"/>
</svg>
