<svg width="22" height="22" viewBox="0 0 22 22" fill="none" xmlns="http://www.w3.org/2000/svg">
<path d="M1.25 6.66667V4.5C1.25 3.63805 1.59241 2.8114 2.2019 2.2019C2.8114 1.59241 3.63805 1.25 4.5 1.25H17.5C18.362 1.25 19.1886 1.59241 19.7981 2.2019C20.4076 2.8114 20.75 3.63805 20.75 4.5V6.66667M1.25 15.3333V17.5C1.25 18.362 1.59241 19.1886 2.2019 19.7981C2.8114 20.4076 3.63805 20.75 4.5 20.75H17.5C18.362 20.75 19.1886 20.4076 19.7981 19.7981C20.4076 19.1886 20.75 18.362 20.75 17.5V15.3333M4.5 6.66667H17.5C19.2949 6.66667 20.75 8.12174 20.75 9.91667V12.0833C20.75 13.8783 19.2949 15.3333 17.5 15.3333H4.5C2.70507 15.3333 1.25 13.8783 1.25 12.0833V9.91667C1.25 8.12174 2.70507 6.66667 4.5 6.66667Z" stroke="#667EEA" stroke-width="2.16667"/>
</svg>
