<svg width="24" height="24" viewBox="0 0 24 24" fill="none" xmlns="http://www.w3.org/2000/svg">
<path d="M18 0H6C2.68629 0 0 2.68629 0 6V18C0 21.3137 2.68629 24 6 24H18C21.3137 24 24 21.3137 24 18V6C24 2.68629 21.3137 0 18 0Z" fill="#667EEA"/>
<path d="M14.5876 9.18222C14.5876 7.72239 14.1967 6.36799 13.5583 5.41269C12.9205 4.45841 12.1588 4.06601 11.4997 4.06601C10.8407 4.06611 10.079 4.45836 9.44115 5.41269C8.80275 6.36799 8.41286 7.72239 8.41283 9.18222C8.41283 12.8445 7.88771 15.2571 7.32982 16.7877C7.25489 16.9932 7.17905 17.1827 7.10424 17.357H15.8962C15.8214 17.1827 15.7446 16.9933 15.6697 16.7877C15.1118 15.2571 14.5876 12.8444 14.5876 9.18222ZM4.6599 17.651L4.65404 17.6568C4.65185 17.6591 4.64916 17.6627 4.64916 17.6627L4.66186 17.65L4.6599 17.651ZM16.5876 9.18222C16.5876 12.6555 17.0846 14.8303 17.5486 16.1031C17.7805 16.7394 18.0053 17.1526 18.157 17.3922C18.2326 17.5116 18.2904 17.5888 18.323 17.6295C18.3328 17.6417 18.3405 17.651 18.3454 17.6568L20.0496 19.357H2.95092L4.64721 17.6646C4.64983 17.6617 4.6602 17.6498 4.6765 17.6295C4.70908 17.5889 4.76764 17.512 4.8435 17.3922C4.99518 17.1526 5.21901 16.7393 5.45092 16.1031C5.91487 14.8303 6.41283 12.6555 6.41283 9.18222C6.41286 7.39783 6.88344 5.64007 7.77807 4.30136C8.67314 2.96209 9.99098 2.06611 11.4997 2.06601C13.0085 2.06601 14.3263 2.96214 15.2214 4.30136C16.1161 5.64007 16.5876 7.39783 16.5876 9.18222Z" fill="white"/>
<path d="M13.6105 21.7957C13.444 22.2252 13.1879 22.6295 12.8331 22.9354C12.4726 23.2462 12.0127 23.45 11.5001 23.45C10.9875 23.45 10.5277 23.2462 10.1671 22.9354C9.81218 22.6295 9.55529 22.2253 9.38878 21.7957L11.254 21.0731C11.327 21.2614 11.4141 21.3701 11.4728 21.4207C11.4831 21.4296 11.493 21.4345 11.5001 21.4393C11.5072 21.4345 11.5172 21.4296 11.5275 21.4207C11.5862 21.3701 11.6732 21.2613 11.7462 21.0731L13.6105 21.7957Z" fill="white"/>
<path d="M11.4999 3.08553C11.8761 3.08553 12.1811 2.62914 12.1811 2.06614C12.1811 1.50315 11.8761 1.04675 11.4999 1.04675C11.1236 1.04675 10.8186 1.50315 10.8186 2.06614C10.8186 2.62914 11.1236 3.08553 11.4999 3.08553Z" fill="white"/>
</svg>
