
<svg width="192" height="205" viewBox="0 0 192 205" fill="none" xmlns="http://www.w3.org/2000/svg">
<path d="M96 204.867C149.019 204.867 192 159.021 192 102.467C192 45.9127 149.019 0.0666809 96 0.0666809C42.9807 0.0666809 0 45.9127 0 102.467C0 159.021 42.9807 204.867 96 204.867Z" fill="#2E5BBA"/>
<path d="M105.6 68.3333H67.2C65.4327 68.3333 64 69.8615 64 71.7466V124.653C64 126.538 65.4327 128.067 67.2 128.067H105.6C107.367 128.067 108.8 126.538 108.8 124.653V71.7466C108.8 69.8615 107.367 68.3333 105.6 68.3333Z" fill="white"/>
<path d="M112 68.3333H80C78.2327 68.3333 76.8 69.8615 76.8 71.7467V124.653C76.8 126.538 78.2327 128.067 80 128.067H112C113.767 128.067 115.2 126.538 115.2 124.653V71.7467C115.2 69.8615 113.767 68.3333 112 68.3333Z" fill="#F8F9FA"/>
<path d="M91.2 85.4H88V111H91.2V85.4Z" fill="#FFD700"/>
<path d="M88 85.4H91.2L89.6 80.28L88 85.4Z" fill="#FF6B6B"/>
<path d="M91.2 107.587H88V111H91.2V107.587Z" fill="#8B4513"/>
<path d="M48 158.787C50.651 158.787 52.8 156.494 52.8 153.667C52.8 150.839 50.651 148.547 48 148.547C45.349 148.547 43.2 150.839 43.2 153.667C43.2 156.494 45.349 158.787 48 158.787Z" fill="#34A853"/>
<path d="M144 158.787C146.651 158.787 148.8 156.494 148.8 153.667C148.8 150.839 146.651 148.547 144 148.547C141.349 148.547 139.2 150.839 139.2 153.667C139.2 156.494 141.349 158.787 144 158.787Z" fill="#EA4335"/>
<path d="M96 184.387C98.651 184.387 100.8 182.094 100.8 179.267C100.8 176.439 98.651 174.147 96 174.147C93.349 174.147 91.2 176.439 91.2 179.267C91.2 182.094 93.349 184.387 96 184.387Z" fill="#FBBC04"/>
</svg>
